<svg width="11" height="12" viewBox="0 0 11 12" fill="none" xmlns="http://www.w3.org/2000/svg">
<path d="M10.756 0.75237C10.4306 0.427001 9.90501 0.427001 9.57964 0.75237L5.5 4.82366L1.42036 0.744027C1.09499 0.418658 0.569397 0.418658 0.244027 0.744027C-0.0813424 1.0694 -0.0813424 1.59499 0.244027 1.92036L4.32366 6L0.244027 10.0796C-0.0813424 10.405 -0.0813424 10.9306 0.244027 11.256C0.569397 11.5813 1.09499 11.5813 1.42036 11.256L5.5 7.17634L9.57964 11.256C9.90501 11.5813 10.4306 11.5813 10.756 11.256C11.0813 10.9306 11.0813 10.405 10.756 10.0796L6.67634 6L10.756 1.92036C11.073 1.60334 11.073 1.0694 10.756 0.75237Z" fill="#8F9BBA"/>
</svg>
