<svg width="14" height="9" viewBox="0 0 14 9" fill="none" xmlns="http://www.w3.org/2000/svg">
<path d="M2.99961 2.9V5.7M10.9996 2.9V5.7M1.79961 8.5H12.1996C12.8623 8.5 13.3996 7.96274 13.3996 7.3V1.7C13.3996 1.03726 12.8623 0.5 12.1996 0.5H1.79961C1.13687 0.5 0.599609 1.03726 0.599609 1.7V7.3C0.599609 7.96274 1.13687 8.5 1.79961 8.5ZM8.59961 4.5C8.59961 5.38366 7.88326 6.1 6.99961 6.1C6.11595 6.1 5.39961 5.38366 5.39961 4.5C5.39961 3.61634 6.11595 2.9 6.99961 2.9C7.88326 2.9 8.59961 3.61634 8.59961 4.5Z" stroke="#3B86FF" stroke-linecap="round" stroke-linejoin="round"/>
</svg>
