<svg width="14" height="13" viewBox="0 0 14 13" fill="none" xmlns="http://www.w3.org/2000/svg">
<path d="M12.7765 11.014C12.7765 11.014 12.0041 11.7727 11.8148 11.9951C11.5064 12.3242 11.1431 12.4796 10.6668 12.4796C10.621 12.4796 10.5722 12.4796 10.5264 12.4765C9.61959 12.4186 8.77693 12.0652 8.14493 11.7635C6.41685 10.9287 4.89945 9.74345 3.6385 8.24134C2.59739 6.98906 1.90127 5.83124 1.44025 4.58811C1.15631 3.82943 1.0525 3.23834 1.0983 2.68076C1.12883 2.32427 1.26622 2.02872 1.51963 1.77583L2.56075 0.736837C2.71035 0.59668 2.86911 0.520508 3.02482 0.520508C3.21717 0.520508 3.37288 0.63629 3.47058 0.73379C3.47363 0.736837 3.47669 0.739884 3.47974 0.742931C3.66598 0.916604 3.84306 1.09637 4.0293 1.28833C4.12395 1.38583 4.22165 1.48333 4.31935 1.58387L5.15286 2.41568C5.47649 2.73865 5.47649 3.03724 5.15286 3.36021C5.06432 3.44857 4.97883 3.53693 4.89029 3.62224C4.63382 3.88428 4.83529 3.68322 4.56967 3.92088C4.56356 3.92697 4.55746 3.93002 4.5544 3.93611C4.29183 4.19815 4.34068 4.45409 4.39564 4.62776C4.39869 4.6369 4.40175 4.64604 4.4048 4.65518C4.62157 5.17925 4.92689 5.67284 5.39096 6.26089L5.39401 6.26394C6.23668 7.29988 7.12514 8.10731 8.1052 8.72583C8.23037 8.80505 8.35861 8.86903 8.48073 8.92997C8.59064 8.98482 8.69445 9.03661 8.78299 9.09146C8.7952 9.09755 8.80742 9.10669 8.81963 9.11279C8.92343 9.16458 9.02113 9.18896 9.12189 9.18896C9.3753 9.18896 9.53406 9.03052 9.58597 8.97872L10.1844 8.38149C10.2882 8.2779 10.4531 8.15298 10.6454 8.15298C10.8347 8.15298 10.9904 8.2718 11.0851 8.3754C11.0881 8.37845 11.0881 8.37845 11.0912 8.38149L12.7735 10.0603C13.0879 10.3711 12.7765 11.014 12.7765 11.014Z" stroke="#3B86FF" stroke-linecap="round" stroke-linejoin="round"/>
</svg>
