<svg width="12" height="13" viewBox="0 0 12 13" fill="none" xmlns="http://www.w3.org/2000/svg">
<path d="M6 5.49025C4.6215 5.49025 3.5 6.61331 3.5 7.99373C3.5 9.37415 4.6215 10.4972 6 10.4972C7.3785 10.4972 8.5 9.37415 8.5 7.99373C8.5 6.61331 7.3785 5.49025 6 5.49025ZM6 9.49582C5.173 9.49582 4.5 8.82189 4.5 7.99373C4.5 7.16558 5.173 6.49164 6 6.49164C6.827 6.49164 7.5 7.16558 7.5 7.99373C7.5 8.82189 6.827 9.49582 6 9.49582ZM10.323 5.97092C11.263 5.87028 12 5.08068 12 4.11384C12 3.40535 11.718 2.73192 11.2035 2.2167C8.9175 -0.0724836 3.0815 -0.0719829 0.7965 2.2167C0.282 2.73192 0 3.40535 0 4.11334C0 5.08068 0.7375 5.87028 1.677 5.97092L0.647 7.90511C0.2235 8.70022 0 9.59646 0 10.4972C0 11.6018 0.897 12.5 2 12.5H10C11.103 12.5 12 11.6018 12 10.4972C12 9.59646 11.7765 8.70022 11.353 7.90511L10.323 5.97092ZM1 4.11284C1 3.67222 1.178 3.25014 1.5035 2.92468C3.437 0.989493 8.564 0.989493 10.4965 2.92468C10.8215 3.25014 11.0005 3.67222 11 4.11334C11 4.59651 10.6075 4.98956 10.125 4.98956H9.783L9.3945 4.34115C9.187 3.99417 8.8875 3.7233 8.53 3.55857C7.965 3.2977 7.0675 2.98727 6 2.98727C4.9325 2.98727 4.035 3.2982 3.4705 3.55857C3.112 3.7238 2.813 3.99417 2.6055 4.34115L2.217 4.98956H1.875C1.3925 4.98956 1 4.59651 1 4.11284ZM10 11.4986H2C1.4485 11.4986 1 11.0495 1 10.4972C1 9.76019 1.183 9.02667 1.53 8.37677L2.939 5.73109L3.463 4.85587C3.567 4.68263 3.714 4.54844 3.8895 4.46783C4.363 4.24903 5.114 3.98816 6.0005 3.98816C6.887 3.98816 7.6375 4.24903 8.112 4.46783C8.287 4.54844 8.434 4.68263 8.538 4.85587L9.062 5.73109L10.471 8.37677C10.8175 9.02717 11.001 9.76069 11.001 10.4972C11.001 11.0495 10.5525 11.4986 10.001 11.4986H10Z" fill="#3B86FF"/>
</svg>
